<?xml version="1.0" encoding="UTF-8" standalone="no"?>
<!-- Generator: Adobe Illustrator 23.0.1, SVG Export Plug-In . SVG Version: 6.00 Build 0)  -->

<svg
   xmlns:dc="http://purl.org/dc/elements/1.1/"
   xmlns:cc="http://creativecommons.org/ns#"
   xmlns:rdf="http://www.w3.org/1999/02/22-rdf-syntax-ns#"
   xmlns:svg="http://www.w3.org/2000/svg"
   xmlns="http://www.w3.org/2000/svg"
   xmlns:sodipodi="http://sodipodi.sourceforge.net/DTD/sodipodi-0.dtd"
   xmlns:inkscape="http://www.inkscape.org/namespaces/inkscape"
   version="1.1"
   id="Ebene_1"
   x="0px"
   y="0px"
   viewBox="0 0 92.8 31.14"
   style="enable-background:new 0 0 92.8 31.14;"
   xml:space="preserve"
   sodipodi:docname="diffdev.svg"
   inkscape:version="0.92.4 5da689c313, 2019-01-14"><metadata
   id="metadata71"><rdf:RDF><cc:Work
       rdf:about=""><dc:format>image/svg+xml</dc:format><dc:type
         rdf:resource="http://purl.org/dc/dcmitype/StillImage" /></cc:Work></rdf:RDF></metadata><defs
   id="defs69" /><sodipodi:namedview
   pagecolor="#ffffff"
   bordercolor="#666666"
   borderopacity="1"
   objecttolerance="10"
   gridtolerance="10"
   guidetolerance="10"
   inkscape:pageopacity="0"
   inkscape:pageshadow="2"
   inkscape:window-width="640"
   inkscape:window-height="480"
   id="namedview67"
   showgrid="false"
   inkscape:zoom="4.0840516"
   inkscape:cx="51.297099"
   inkscape:cy="16.059709"
   inkscape:window-x="0"
   inkscape:window-y="28"
   inkscape:window-maximized="0"
   inkscape:current-layer="Ebene_1" />
<style
   type="text/css"
   id="style2">
	.st0{fill:#CB3C32;}
	.st1{fill:#925AA1;}
	.st2{fill:#399746;}
	.st3{fill:none;}
</style>
<g
   id="g890_1_">
	<path
   id="path13_1_"
   class="st0"
   d="M68.73,28.73c-0.83,0-1.5-0.67-1.5-1.5c0-0.83,0.67-1.5,1.5-1.5c0.83,0,1.5,0.67,1.5,1.5   C70.23,28.06,69.56,28.73,68.73,28.73z" />
	<path
   id="path25_1_"
   class="st1"
   d="M72.34,28.73c-0.83,0-1.5-0.67-1.5-1.5c0-0.83,0.67-1.5,1.5-1.5c0.83,0,1.5,0.67,1.5,1.5   C73.84,28.06,73.17,28.73,72.34,28.73z" />
	<path
   id="path31_1_"
   class="st2"
   d="M70.54,25.61c-0.83,0-1.5-0.67-1.5-1.5c0-0.83,0.67-1.5,1.5-1.5s1.5,0.67,1.5,1.5   C72.04,24.93,71.37,25.61,70.54,25.61C70.54,25.61,70.54,25.61,70.54,25.61z" />
</g>
<g
   id="g34">
	<rect
   x="0.73"
   y="19.81"
   class="st3"
   width="66.05"
   height="8.96"
   id="rect8" />
	<path
   d="M6.92,19.82l-1.09,8.84H5.28c-0.14,0-0.23-0.04-0.28-0.11c-0.05-0.07-0.07-0.16-0.07-0.26l0.11-1.28   c-0.15,0.26-0.32,0.5-0.5,0.71s-0.37,0.39-0.57,0.55c-0.2,0.15-0.4,0.27-0.62,0.35s-0.43,0.12-0.65,0.12   c-0.52,0-0.92-0.19-1.21-0.57c-0.29-0.38-0.43-0.93-0.43-1.65c0-0.33,0.03-0.66,0.1-0.98c0.07-0.33,0.17-0.64,0.29-0.94   c0.13-0.3,0.28-0.58,0.46-0.84c0.18-0.26,0.38-0.48,0.6-0.67c0.22-0.19,0.46-0.34,0.71-0.44c0.25-0.11,0.52-0.16,0.8-0.16   c0.3,0,0.57,0.06,0.82,0.18c0.25,0.12,0.46,0.29,0.63,0.5l0.41-3.35H6.92z M5.38,23.9c-0.15-0.22-0.33-0.37-0.55-0.45   c-0.21-0.09-0.43-0.13-0.65-0.13c-0.32,0-0.6,0.09-0.85,0.28c-0.25,0.19-0.47,0.43-0.65,0.73c-0.18,0.3-0.31,0.63-0.41,1   c-0.1,0.37-0.14,0.73-0.14,1.09c0,0.48,0.08,0.84,0.25,1.09s0.41,0.38,0.73,0.38c0.19,0,0.39-0.06,0.58-0.18s0.38-0.29,0.57-0.5   s0.35-0.47,0.51-0.76c0.16-0.29,0.29-0.61,0.41-0.96L5.38,23.9z"
   id="path10" />
	<path
   d="M9.28,22.58l-0.73,6.08H7.49l0.73-6.08H9.28z M9.68,20.67c0,0.1-0.02,0.2-0.06,0.29c-0.04,0.09-0.1,0.17-0.17,0.24   c-0.07,0.07-0.15,0.13-0.24,0.17c-0.09,0.04-0.18,0.06-0.28,0.06c-0.09,0-0.18-0.02-0.27-0.06S8.5,21.27,8.43,21.2   c-0.07-0.07-0.12-0.15-0.16-0.24c-0.04-0.09-0.06-0.19-0.06-0.29s0.02-0.2,0.06-0.29c0.04-0.09,0.09-0.17,0.16-0.24   s0.15-0.13,0.23-0.17s0.18-0.06,0.27-0.06c0.1,0,0.19,0.02,0.28,0.06c0.09,0.04,0.17,0.09,0.24,0.17c0.07,0.07,0.12,0.15,0.17,0.25   C9.66,20.47,9.68,20.57,9.68,20.67z"
   id="path12" />
	<path
   d="M15.76,22.7h1.6l-0.1,0.75H15.7l-0.61,5.01l-0.28,1.24c-0.04,0.14-0.11,0.25-0.2,0.33s-0.21,0.12-0.36,0.12h-0.42l0.81-6.7   h-2.43l-0.61,5.01l-0.28,1.24c-0.04,0.14-0.11,0.25-0.2,0.33s-0.21,0.12-0.36,0.12h-0.42l0.82-6.69l-0.59-0.08   c-0.08-0.01-0.14-0.04-0.19-0.08c-0.05-0.04-0.07-0.1-0.06-0.18l0.05-0.42h0.88l0.06-0.5c0.04-0.35,0.13-0.66,0.26-0.93   s0.29-0.5,0.48-0.68c0.19-0.19,0.42-0.33,0.67-0.42c0.25-0.1,0.52-0.14,0.81-0.14c0.24,0,0.47,0.04,0.68,0.12l-0.1,0.56   c-0.01,0.04-0.03,0.07-0.06,0.08c-0.03,0.02-0.06,0.03-0.11,0.03s-0.1,0-0.15,0c-0.06,0-0.12,0-0.19,0c-0.17,0-0.32,0.02-0.46,0.07   S12.89,21,12.78,21.1c-0.11,0.1-0.2,0.24-0.28,0.42c-0.07,0.17-0.13,0.39-0.16,0.65l-0.07,0.53h2.47l0.08-0.65   c0.04-0.35,0.13-0.66,0.26-0.93c0.13-0.27,0.29-0.5,0.49-0.68s0.42-0.33,0.67-0.42c0.25-0.1,0.53-0.14,0.83-0.14   c0.25,0,0.47,0.04,0.68,0.12l-0.1,0.55c-0.01,0.04-0.03,0.07-0.06,0.08c-0.03,0.02-0.06,0.03-0.11,0.03   c-0.04,0.01-0.1,0.01-0.15,0.01s-0.12,0-0.19,0c-0.17,0-0.33,0.02-0.47,0.08c-0.14,0.05-0.27,0.13-0.38,0.24   c-0.11,0.11-0.21,0.26-0.28,0.44c-0.08,0.18-0.13,0.4-0.16,0.66L15.76,22.7z"
   id="path14" />
	<path
   d="M22.19,27.53c-0.2,0.21-0.4,0.39-0.6,0.54c-0.2,0.15-0.4,0.28-0.6,0.38c-0.2,0.1-0.41,0.17-0.64,0.22   c-0.22,0.05-0.46,0.07-0.72,0.07c-0.35,0-0.66-0.06-0.94-0.17c-0.28-0.12-0.51-0.28-0.7-0.5c-0.19-0.21-0.34-0.47-0.44-0.78   c-0.1-0.3-0.16-0.64-0.16-1.02c0-0.31,0.03-0.62,0.1-0.93c0.07-0.31,0.16-0.6,0.29-0.89c0.13-0.28,0.28-0.54,0.46-0.78   c0.18-0.24,0.39-0.45,0.62-0.62c0.23-0.17,0.49-0.31,0.77-0.41c0.28-0.1,0.58-0.15,0.91-0.15c0.31,0,0.57,0.04,0.8,0.13   c0.22,0.09,0.41,0.2,0.55,0.34c0.14,0.14,0.25,0.29,0.32,0.45c0.07,0.16,0.1,0.32,0.1,0.47c0,0.26-0.05,0.51-0.16,0.73   c-0.11,0.22-0.31,0.42-0.59,0.6c-0.29,0.18-0.68,0.33-1.19,0.46s-1.15,0.24-1.94,0.32c0,0.04,0,0.09,0,0.13c0,0.04,0,0.08,0,0.13   c0,0.54,0.12,0.94,0.35,1.23c0.23,0.28,0.59,0.42,1.06,0.42c0.19,0,0.36-0.02,0.51-0.06s0.28-0.09,0.4-0.15s0.22-0.12,0.31-0.19   c0.09-0.07,0.17-0.13,0.25-0.19c0.07-0.06,0.14-0.11,0.21-0.15s0.13-0.06,0.19-0.06c0.08,0,0.14,0.03,0.2,0.1L22.19,27.53z    M20.5,23.26c-0.25,0-0.48,0.05-0.7,0.16s-0.4,0.25-0.56,0.43s-0.3,0.4-0.42,0.64c-0.12,0.25-0.21,0.51-0.27,0.79   c0.62-0.08,1.11-0.16,1.48-0.26c0.37-0.1,0.66-0.2,0.86-0.32c0.2-0.11,0.33-0.24,0.4-0.37c0.06-0.13,0.1-0.27,0.1-0.41   c0-0.07-0.02-0.15-0.05-0.23c-0.03-0.08-0.08-0.15-0.15-0.21s-0.16-0.12-0.27-0.16C20.8,23.28,20.66,23.26,20.5,23.26z"
   id="path16" />
	<path
   d="M24.68,24.27c0.16-0.34,0.33-0.63,0.52-0.88s0.38-0.45,0.58-0.59s0.41-0.23,0.63-0.26c0.22-0.03,0.44,0,0.66,0.1   l-0.19,1.03c-0.52-0.21-0.98-0.13-1.38,0.23c-0.4,0.36-0.72,1.01-0.97,1.95l-0.34,2.81h-1.04l0.73-6.08h0.53   c0.24,0,0.37,0.12,0.37,0.36L24.68,24.27z"
   id="path18" />
	<path
   d="M31.82,27.53c-0.2,0.21-0.4,0.39-0.6,0.54c-0.2,0.15-0.4,0.28-0.6,0.38c-0.2,0.1-0.41,0.17-0.64,0.22   c-0.22,0.05-0.46,0.07-0.72,0.07c-0.35,0-0.66-0.06-0.94-0.17c-0.28-0.12-0.51-0.28-0.7-0.5c-0.19-0.21-0.34-0.47-0.44-0.78   c-0.1-0.3-0.16-0.64-0.16-1.02c0-0.31,0.03-0.62,0.1-0.93c0.07-0.31,0.16-0.6,0.29-0.89c0.13-0.28,0.28-0.54,0.46-0.78   c0.18-0.24,0.39-0.45,0.62-0.62c0.23-0.17,0.49-0.31,0.77-0.41c0.28-0.1,0.58-0.15,0.91-0.15c0.31,0,0.57,0.04,0.8,0.13   c0.22,0.09,0.41,0.2,0.55,0.34c0.14,0.14,0.25,0.29,0.32,0.45c0.07,0.16,0.1,0.32,0.1,0.47c0,0.26-0.05,0.51-0.16,0.73   c-0.11,0.22-0.31,0.42-0.59,0.6c-0.29,0.18-0.68,0.33-1.19,0.46s-1.15,0.24-1.94,0.32c0,0.04,0,0.09,0,0.13c0,0.04,0,0.08,0,0.13   c0,0.54,0.12,0.94,0.35,1.23c0.23,0.28,0.59,0.42,1.06,0.42c0.19,0,0.36-0.02,0.51-0.06s0.28-0.09,0.4-0.15s0.22-0.12,0.31-0.19   c0.09-0.07,0.17-0.13,0.25-0.19c0.07-0.06,0.14-0.11,0.21-0.15s0.13-0.06,0.19-0.06c0.08,0,0.14,0.03,0.2,0.1L31.82,27.53z    M30.13,23.26c-0.25,0-0.48,0.05-0.7,0.16s-0.4,0.25-0.56,0.43s-0.3,0.4-0.42,0.64c-0.12,0.25-0.21,0.51-0.27,0.79   c0.62-0.08,1.11-0.16,1.48-0.26c0.37-0.1,0.66-0.2,0.86-0.32c0.2-0.11,0.33-0.24,0.4-0.37c0.06-0.13,0.1-0.27,0.1-0.41   c0-0.07-0.02-0.15-0.05-0.23c-0.03-0.08-0.08-0.15-0.15-0.21s-0.16-0.12-0.27-0.16C30.42,23.28,30.29,23.26,30.13,23.26z"
   id="path20" />
	<path
   d="M34.31,24.11c0.32-0.54,0.69-0.94,1.1-1.21c0.41-0.27,0.83-0.41,1.26-0.41c0.26,0,0.48,0.05,0.67,0.15s0.35,0.25,0.47,0.45   c0.12,0.2,0.2,0.44,0.25,0.72c0.04,0.29,0.04,0.61,0,0.98l-0.46,3.87h-1.06L37,24.79c0.06-0.48,0.03-0.83-0.09-1.06   c-0.12-0.23-0.33-0.34-0.64-0.34c-0.19,0-0.39,0.05-0.58,0.16c-0.2,0.1-0.39,0.25-0.57,0.44c-0.18,0.19-0.35,0.42-0.51,0.69   c-0.16,0.27-0.29,0.57-0.4,0.9l-0.35,3.08h-1.07l0.73-6.08h0.53c0.24,0,0.36,0.12,0.36,0.36L34.31,24.11z"
   id="path22" />
	<path
   d="M44.93,23.46l-0.64,5.2h-1.04l0.64-5.2h-2.84l-0.37,3c-0.02,0.16-0.04,0.3-0.05,0.4c-0.01,0.1-0.02,0.18-0.03,0.24   s-0.01,0.1-0.01,0.13c0,0.02,0,0.04,0,0.05c0,0.2,0.05,0.35,0.14,0.45c0.1,0.1,0.23,0.15,0.39,0.15c0.1,0,0.2-0.02,0.28-0.05   c0.08-0.03,0.15-0.06,0.21-0.1c0.06-0.04,0.11-0.07,0.15-0.1c0.04-0.03,0.08-0.04,0.11-0.04c0.03,0,0.06,0.01,0.08,0.02   s0.04,0.04,0.06,0.08l0.22,0.51c-0.19,0.17-0.41,0.31-0.66,0.41c-0.25,0.1-0.5,0.15-0.75,0.15c-0.39,0-0.69-0.11-0.92-0.32   c-0.22-0.21-0.34-0.52-0.35-0.92c0-0.02,0-0.06,0-0.09c0-0.04,0.01-0.09,0.01-0.17c0.01-0.07,0.02-0.17,0.03-0.28   c0.01-0.12,0.03-0.27,0.05-0.46l0.38-3.05h-0.66c-0.06,0-0.11-0.02-0.14-0.06s-0.05-0.1-0.04-0.17l0.05-0.41l0.92-0.12l0.46-1.89   c0.02-0.06,0.05-0.11,0.09-0.15s0.09-0.06,0.16-0.06h0.56l-0.26,2.1h3.86L44.93,23.46z M45.54,20.67c0,0.1-0.02,0.2-0.06,0.29   c-0.04,0.09-0.1,0.17-0.17,0.24c-0.07,0.07-0.15,0.13-0.24,0.17c-0.09,0.04-0.18,0.06-0.28,0.06c-0.09,0-0.18-0.02-0.27-0.06   s-0.17-0.09-0.23-0.17c-0.07-0.07-0.12-0.15-0.16-0.24c-0.04-0.09-0.06-0.19-0.06-0.29s0.02-0.2,0.06-0.29   c0.04-0.09,0.09-0.17,0.16-0.24s0.15-0.13,0.23-0.17s0.18-0.06,0.27-0.06c0.1,0,0.19,0.02,0.28,0.06c0.09,0.04,0.17,0.09,0.24,0.17   c0.07,0.07,0.12,0.15,0.17,0.25C45.52,20.47,45.54,20.57,45.54,20.67z"
   id="path24" />
	<path
   d="M49.7,27.05c-0.14,0.26-0.3,0.49-0.46,0.7s-0.34,0.38-0.53,0.53s-0.38,0.26-0.59,0.34s-0.42,0.12-0.64,0.12   c-0.24,0-0.46-0.05-0.65-0.14c-0.2-0.09-0.36-0.23-0.5-0.41C46.18,28,46.08,27.78,46,27.51c-0.08-0.27-0.11-0.57-0.11-0.92   c0-0.36,0.05-0.71,0.14-1.05c0.09-0.34,0.22-0.67,0.38-0.97c0.17-0.3,0.37-0.58,0.6-0.84s0.49-0.47,0.78-0.66s0.59-0.33,0.92-0.43   c0.33-0.1,0.67-0.15,1.03-0.15c0.26,0,0.51,0.02,0.76,0.06c0.25,0.04,0.49,0.12,0.73,0.22l-0.73,5.88h-0.55   c-0.14,0-0.23-0.04-0.29-0.11c-0.05-0.07-0.07-0.16-0.07-0.26L49.7,27.05z M50.1,23.32c-0.09-0.02-0.18-0.03-0.26-0.04   s-0.17-0.01-0.25-0.01c-0.24,0-0.47,0.04-0.7,0.12c-0.22,0.08-0.43,0.19-0.63,0.33c-0.2,0.14-0.37,0.31-0.53,0.5   c-0.16,0.19-0.3,0.41-0.41,0.64c-0.11,0.23-0.2,0.48-0.27,0.74c-0.06,0.26-0.1,0.53-0.1,0.81c0,0.96,0.31,1.45,0.92,1.45   c0.2,0,0.39-0.06,0.58-0.18s0.37-0.29,0.54-0.51c0.17-0.22,0.33-0.48,0.47-0.77s0.27-0.63,0.38-0.98L50.1,23.32z"
   id="path26" />
	<path
   d="M53.66,24.12c0.15-0.25,0.31-0.47,0.49-0.67c0.17-0.2,0.36-0.37,0.55-0.51c0.19-0.14,0.39-0.25,0.6-0.33   c0.21-0.08,0.42-0.12,0.64-0.12c0.52,0,0.92,0.19,1.21,0.56c0.29,0.38,0.43,0.93,0.43,1.65c0,0.33-0.03,0.66-0.1,0.98   c-0.07,0.33-0.16,0.64-0.29,0.94c-0.13,0.3-0.28,0.58-0.46,0.83c-0.18,0.26-0.38,0.48-0.59,0.67c-0.22,0.19-0.46,0.34-0.71,0.45   s-0.52,0.16-0.8,0.16c-0.32,0-0.62-0.07-0.88-0.2c-0.26-0.14-0.48-0.33-0.65-0.58l-0.08,0.39c-0.03,0.1-0.07,0.18-0.12,0.23   c-0.05,0.05-0.13,0.08-0.26,0.08h-0.56l1.07-8.84h1.04L53.66,24.12z M53.27,27.32c0.15,0.21,0.33,0.36,0.55,0.45   c0.21,0.09,0.43,0.13,0.65,0.13c0.21,0,0.4-0.04,0.59-0.13s0.35-0.21,0.5-0.36c0.15-0.15,0.29-0.33,0.41-0.53   c0.12-0.2,0.22-0.42,0.3-0.65c0.08-0.23,0.15-0.47,0.19-0.71s0.06-0.49,0.06-0.73c0-0.48-0.08-0.84-0.25-1.09s-0.41-0.37-0.72-0.37   c-0.19,0-0.39,0.06-0.58,0.18c-0.2,0.12-0.39,0.29-0.57,0.5s-0.35,0.47-0.51,0.76c-0.16,0.29-0.3,0.62-0.41,0.96L53.27,27.32z"
   id="path28" />
	<path
   d="M58.44,28.66l1.07-8.84h1.05l-1.07,8.84H58.44z"
   id="path30" />
	<path
   d="M65.9,27.53c-0.2,0.21-0.4,0.39-0.6,0.54c-0.2,0.15-0.4,0.28-0.6,0.38c-0.2,0.1-0.41,0.17-0.64,0.22   c-0.22,0.05-0.46,0.07-0.72,0.07c-0.35,0-0.66-0.06-0.94-0.17c-0.28-0.12-0.51-0.28-0.7-0.5c-0.19-0.21-0.34-0.47-0.44-0.78   c-0.1-0.3-0.16-0.64-0.16-1.02c0-0.31,0.03-0.62,0.1-0.93c0.07-0.31,0.16-0.6,0.29-0.89c0.13-0.28,0.28-0.54,0.46-0.78   c0.18-0.24,0.39-0.45,0.62-0.62c0.23-0.17,0.49-0.31,0.77-0.41c0.28-0.1,0.58-0.15,0.91-0.15c0.31,0,0.57,0.04,0.8,0.13   c0.22,0.09,0.41,0.2,0.55,0.34c0.14,0.14,0.25,0.29,0.32,0.45c0.07,0.16,0.1,0.32,0.1,0.47c0,0.26-0.05,0.51-0.16,0.73   c-0.11,0.22-0.31,0.42-0.59,0.6c-0.29,0.18-0.68,0.33-1.19,0.46s-1.15,0.24-1.94,0.32c0,0.04,0,0.09,0,0.13c0,0.04,0,0.08,0,0.13   c0,0.54,0.12,0.94,0.35,1.23c0.23,0.28,0.59,0.42,1.06,0.42c0.19,0,0.36-0.02,0.51-0.06s0.28-0.09,0.4-0.15s0.22-0.12,0.31-0.19   c0.09-0.07,0.17-0.13,0.25-0.19c0.07-0.06,0.14-0.11,0.21-0.15s0.13-0.06,0.19-0.06c0.08,0,0.14,0.03,0.2,0.1L65.9,27.53z    M64.2,23.26c-0.25,0-0.48,0.05-0.7,0.16s-0.4,0.25-0.56,0.43s-0.3,0.4-0.42,0.64c-0.12,0.25-0.21,0.51-0.27,0.79   c0.62-0.08,1.11-0.16,1.48-0.26c0.37-0.1,0.66-0.2,0.86-0.32c0.2-0.11,0.33-0.24,0.4-0.37c0.06-0.13,0.1-0.27,0.1-0.41   c0-0.07-0.02-0.15-0.05-0.23c-0.03-0.08-0.08-0.15-0.15-0.21s-0.16-0.12-0.27-0.16C64.5,23.28,64.36,23.26,64.2,23.26z"
   id="path32" />
</g>
<g
   id="g42"
   transform="translate(-2)">
	<rect
   x="36.73"
   y="0.77999997"
   class="st3"
   width="26.879999"
   height="19.02"
   id="rect36"
   style="fill:none" />
	<path
   d="m 40.42,2.45 c 0.29,-0.21 0.59,-0.4 0.88,-0.57 0.29,-0.17 0.6,-0.31 0.92,-0.43 0.32,-0.12 0.66,-0.2 1.01,-0.27 0.35,-0.07 0.75,-0.09 1.17,-0.09 0.62,0 1.17,0.13 1.66,0.4 0.49,0.27 0.9,0.65 1.22,1.16 0.32,0.5 0.55,1.12 0.67,1.84 0.13,0.72 0.13,1.54 0.02,2.45 -0.18,1.47 -0.47,2.8 -0.86,3.99 -0.39,1.19 -0.89,2.21 -1.49,3.05 -0.6,0.84 -1.31,1.49 -2.12,1.95 -0.81,0.46 -1.73,0.69 -2.74,0.69 -0.61,0 -1.16,-0.1 -1.65,-0.32 -0.49,-0.21 -0.9,-0.51 -1.23,-0.91 -0.33,-0.4 -0.57,-0.87 -0.71,-1.43 C 37.03,13.4 37,12.77 37.08,12.08 37.18,11.26 37.4,10.5 37.75,9.8 38.1,9.1 38.54,8.49 39.06,7.97 c 0.52,-0.52 1.11,-0.92 1.76,-1.22 0.65,-0.29 1.34,-0.44 2.05,-0.44 0.6,0 1.09,0.1 1.49,0.29 0.4,0.19 0.72,0.47 0.97,0.83 L 45.38,6.96 C 45.45,6.35 45.46,5.82 45.41,5.36 45.36,4.91 45.26,4.53 45.12,4.23 44.98,3.93 44.78,3.7 44.54,3.55 44.3,3.4 44.03,3.32 43.73,3.32 43.51,3.32 43.29,3.36 43.07,3.43 42.86,3.5 42.65,3.58 42.46,3.66 42.27,3.74 42.09,3.82 41.92,3.89 41.75,3.96 41.61,4 41.5,4 41.4,4 41.29,3.97 41.2,3.91 41.11,3.85 41,3.73 40.91,3.55 Z m 0.95,11.97 c 0.29,0 0.58,-0.07 0.87,-0.21 0.29,-0.14 0.58,-0.37 0.86,-0.68 0.28,-0.31 0.55,-0.72 0.8,-1.22 0.26,-0.5 0.48,-1.12 0.69,-1.85 C 44.56,10.2 44.51,9.95 44.44,9.72 44.37,9.49 44.27,9.28 44.14,9.1 44.01,8.92 43.84,8.77 43.64,8.66 43.44,8.55 43.19,8.5 42.89,8.5 c -0.42,0 -0.79,0.09 -1.11,0.26 -0.32,0.17 -0.6,0.42 -0.83,0.73 -0.23,0.31 -0.43,0.68 -0.57,1.12 -0.15,0.43 -0.25,0.91 -0.31,1.43 -0.1,0.76 -0.03,1.35 0.2,1.76 0.22,0.42 0.59,0.62 1.1,0.62 z"
   id="path38"
   inkscape:connector-curvature="0" />
	<path
   d="m 54.97,1.23 c 1.04,0 1.94,0.12 2.7,0.37 0.76,0.25 1.38,0.59 1.87,1.02 0.49,0.44 0.85,0.96 1.09,1.56 0.23,0.6 0.35,1.26 0.35,1.96 0,0.75 -0.12,1.44 -0.37,2.06 -0.25,0.62 -0.62,1.16 -1.11,1.61 -0.5,0.45 -1.12,0.8 -1.88,1.04 -0.76,0.24 -1.64,0.37 -2.66,0.37 h -2 v 5.24 H 49.81 V 1.23 Z m 0,7.58 c 0.99,0 1.71,-0.24 2.17,-0.71 C 57.6,7.62 57.83,6.97 57.83,6.15 57.83,5.77 57.77,5.43 57.66,5.12 57.54,4.81 57.37,4.54 57.14,4.32 56.9,4.09 56.6,3.92 56.24,3.8 55.88,3.68 55.46,3.62 54.97,3.62 h -2 v 5.19 z"
   id="path40"
   inkscape:connector-curvature="0" />
</g>
<g
   id="g52">
	<rect
   x="74.21"
   y="19.81"
   class="st3"
   width="18.6"
   height="8.96"
   id="rect44" />
	<path
   d="M80.4,19.82l-1.09,8.84h-0.56c-0.14,0-0.23-0.04-0.28-0.11c-0.05-0.07-0.07-0.16-0.07-0.26l0.11-1.28   c-0.15,0.26-0.32,0.5-0.5,0.71s-0.37,0.39-0.57,0.55c-0.2,0.15-0.4,0.27-0.62,0.35s-0.43,0.12-0.65,0.12   c-0.52,0-0.92-0.19-1.21-0.57c-0.29-0.38-0.43-0.93-0.43-1.65c0-0.33,0.03-0.66,0.1-0.98c0.07-0.33,0.17-0.64,0.29-0.94   c0.13-0.3,0.28-0.58,0.46-0.84c0.18-0.26,0.38-0.48,0.6-0.67c0.22-0.19,0.46-0.34,0.71-0.44c0.25-0.11,0.52-0.16,0.8-0.16   c0.3,0,0.57,0.06,0.82,0.18c0.25,0.12,0.46,0.29,0.63,0.5l0.41-3.35H80.4z M78.85,23.9c-0.15-0.22-0.33-0.37-0.55-0.45   c-0.21-0.09-0.43-0.13-0.65-0.13c-0.32,0-0.6,0.09-0.85,0.28c-0.25,0.19-0.47,0.43-0.65,0.73c-0.18,0.3-0.31,0.63-0.41,1   c-0.1,0.37-0.14,0.73-0.14,1.09c0,0.48,0.08,0.84,0.25,1.09s0.41,0.38,0.73,0.38c0.19,0,0.39-0.06,0.58-0.18s0.38-0.29,0.57-0.5   s0.35-0.47,0.51-0.76c0.16-0.29,0.29-0.61,0.41-0.96L78.85,23.9z"
   id="path46" />
	<path
   d="M85.69,27.53c-0.2,0.21-0.4,0.39-0.6,0.54c-0.2,0.15-0.4,0.28-0.6,0.38c-0.2,0.1-0.41,0.17-0.64,0.22   c-0.22,0.05-0.46,0.07-0.72,0.07c-0.35,0-0.66-0.06-0.94-0.17c-0.28-0.12-0.51-0.28-0.7-0.5c-0.19-0.21-0.34-0.47-0.44-0.78   c-0.1-0.3-0.16-0.64-0.16-1.02c0-0.31,0.03-0.62,0.1-0.93c0.07-0.31,0.16-0.6,0.29-0.89c0.13-0.28,0.28-0.54,0.46-0.78   c0.18-0.24,0.39-0.45,0.62-0.62c0.23-0.17,0.49-0.31,0.77-0.41c0.28-0.1,0.58-0.15,0.91-0.15c0.31,0,0.57,0.04,0.8,0.13   c0.22,0.09,0.41,0.2,0.55,0.34c0.14,0.14,0.25,0.29,0.32,0.45c0.07,0.16,0.1,0.32,0.1,0.47c0,0.26-0.05,0.51-0.16,0.73   c-0.11,0.22-0.31,0.42-0.59,0.6c-0.29,0.18-0.68,0.33-1.19,0.46s-1.15,0.24-1.94,0.32c0,0.04,0,0.09,0,0.13c0,0.04,0,0.08,0,0.13   c0,0.54,0.12,0.94,0.35,1.23c0.23,0.28,0.59,0.42,1.06,0.42c0.19,0,0.36-0.02,0.51-0.06s0.28-0.09,0.4-0.15s0.22-0.12,0.31-0.19   c0.09-0.07,0.17-0.13,0.25-0.19c0.07-0.06,0.14-0.11,0.21-0.15s0.13-0.06,0.19-0.06c0.08,0,0.14,0.03,0.2,0.1L85.69,27.53z    M84,23.26c-0.25,0-0.48,0.05-0.7,0.16s-0.4,0.25-0.56,0.43s-0.3,0.4-0.42,0.64c-0.12,0.25-0.21,0.51-0.27,0.79   c0.62-0.08,1.11-0.16,1.48-0.26c0.37-0.1,0.66-0.2,0.86-0.32c0.2-0.11,0.33-0.24,0.4-0.37c0.06-0.13,0.1-0.27,0.1-0.41   c0-0.07-0.02-0.15-0.05-0.23c-0.03-0.08-0.08-0.15-0.15-0.21s-0.16-0.12-0.27-0.16C84.29,23.28,84.16,23.26,84,23.26z"
   id="path48" />
	<path
   d="M92.1,22.58l-3.05,6.08h-0.89l-1.57-6.08h0.86c0.08,0,0.14,0.02,0.19,0.07c0.05,0.04,0.08,0.1,0.1,0.16l0.9,3.91   c0.02,0.15,0.04,0.3,0.06,0.45c0.02,0.15,0.03,0.3,0.04,0.45c0.04-0.15,0.09-0.3,0.14-0.44c0.05-0.15,0.11-0.3,0.18-0.46l1.88-3.91   c0.03-0.06,0.08-0.12,0.13-0.16c0.06-0.04,0.12-0.06,0.19-0.06H92.1z"
   id="path50" />
</g>
<g
   id="g54">
</g>
<g
   id="g56">
</g>
<g
   id="g58">
</g>
<g
   id="g60">
</g>
<g
   id="g62">
</g>
<g
   id="g64">
</g>
</svg>