<?xml version="1.0" encoding="UTF-8" standalone="no"?>
<!-- Generator: Adobe Illustrator 23.0.1, SVG Export Plug-In . SVG Version: 6.00 Build 0)  -->

<svg
   xmlns:dc="http://purl.org/dc/elements/1.1/"
   xmlns:cc="http://creativecommons.org/ns#"
   xmlns:rdf="http://www.w3.org/1999/02/22-rdf-syntax-ns#"
   xmlns:svg="http://www.w3.org/2000/svg"
   xmlns="http://www.w3.org/2000/svg"
   xmlns:sodipodi="http://sodipodi.sourceforge.net/DTD/sodipodi-0.dtd"
   xmlns:inkscape="http://www.inkscape.org/namespaces/inkscape"
   version="1.1"
   id="Ebene_1"
   x="0px"
   y="0px"
   viewBox="0 0 26.3 17.29"
   style="enable-background:new 0 0 26.3 17.29;"
   xml:space="preserve"
   sodipodi:docname="diffdev_logo_bright.svg"
   inkscape:version="0.92.4 5da689c313, 2019-01-14"><metadata
   id="metadata29"><rdf:RDF><cc:Work
       rdf:about=""><dc:format>image/svg+xml</dc:format><dc:type
         rdf:resource="http://purl.org/dc/dcmitype/StillImage" /><dc:title></dc:title></cc:Work></rdf:RDF></metadata><defs
   id="defs27" /><sodipodi:namedview
   pagecolor="#ffffff"
   bordercolor="#666666"
   borderopacity="1"
   objecttolerance="10"
   gridtolerance="10"
   guidetolerance="10"
   inkscape:pageopacity="0"
   inkscape:pageshadow="2"
   inkscape:window-width="2560"
   inkscape:window-height="1412"
   id="namedview25"
   showgrid="false"
   inkscape:zoom="13.649508"
   inkscape:cx="1.6111219"
   inkscape:cy="10.110255"
   inkscape:window-x="0"
   inkscape:window-y="28"
   inkscape:window-maximized="1"
   inkscape:current-layer="g10" />
<style
   type="text/css"
   id="style2">
	.st0{fill:none;}
</style>
<g
   id="g10">
	<rect
   x="0.93000001"
   y="0.38999999"
   class="st0"
   width="26.879999"
   height="19.02"
   id="rect4"
   style="fill:none" />
	<path
   d="M 4.62,2.05 C 4.91,1.84 5.2,1.65 5.5,1.48 5.8,1.31 6.1,1.17 6.42,1.05 6.74,0.93 7.08,0.85 7.43,0.78 7.78,0.71 8.18,0.69 8.6,0.69 c 0.62,0 1.17,0.13 1.66,0.4 0.49,0.27 0.9,0.65 1.22,1.16 0.32,0.5 0.55,1.12 0.67,1.84 0.13,0.72 0.13,1.54 0.02,2.45 -0.18,1.47 -0.47,2.8 -0.86,3.99 -0.39,1.19 -0.89,2.21 -1.49,3.05 C 9.22,14.42 8.51,15.07 7.7,15.53 6.89,15.99 5.97,16.22 4.96,16.22 4.35,16.22 3.8,16.12 3.31,15.9 2.81,15.69 2.4,15.39 2.07,15 1.74,14.6 1.5,14.13 1.36,13.57 1.22,13.01 1.19,12.38 1.27,11.69 1.37,10.87 1.59,10.11 1.94,9.41 2.29,8.71 2.73,8.1 3.25,7.58 3.77,7.06 4.36,6.66 5.01,6.36 5.66,6.07 6.35,5.92 7.06,5.92 c 0.6,0 1.09,0.1 1.49,0.29 0.4,0.19 0.72,0.47 0.97,0.83 L 9.57,6.57 C 9.64,5.96 9.65,5.43 9.6,4.97 9.56,4.51 9.46,4.13 9.31,3.83 9.16,3.53 8.97,3.3 8.73,3.15 8.49,3 8.21,2.93 7.91,2.93 7.69,2.93 7.47,2.97 7.25,3.04 7.04,3.1 6.84,3.18 6.64,3.26 6.44,3.34 6.27,3.42 6.11,3.49 5.95,3.56 5.81,3.6 5.7,3.6 5.6,3.6 5.49,3.57 5.4,3.51 5.31,3.45 5.2,3.33 5.11,3.15 Z m 0.94,11.97 c 0.29,0 0.58,-0.07 0.87,-0.21 0.29,-0.14 0.58,-0.37 0.86,-0.68 0.28,-0.31 0.55,-0.72 0.8,-1.22 0.26,-0.5 0.48,-1.12 0.69,-1.85 C 8.76,9.81 8.71,9.56 8.64,9.33 8.57,9.09 8.47,8.88 8.34,8.7 8.21,8.52 8.04,8.37 7.84,8.26 7.64,8.16 7.39,8.1 7.09,8.1 6.67,8.1 6.3,8.19 5.98,8.36 5.66,8.53 5.38,8.78 5.15,9.09 4.92,9.4 4.72,9.77 4.58,10.21 c -0.15,0.43 -0.25,0.91 -0.31,1.43 -0.1,0.76 -0.03,1.35 0.2,1.76 0.22,0.42 0.59,0.62 1.09,0.62 z"
   id="path6"
   inkscape:connector-curvature="0"
   style="fill-opacity:1;fill:#e6e6e6" />
	<path
   d="m 19.17,0.83 c 1.04,0 1.94,0.12 2.7,0.37 0.76,0.25 1.38,0.59 1.87,1.02 0.49,0.44 0.85,0.96 1.09,1.56 0.23,0.6 0.35,1.26 0.35,1.96 0,0.75 -0.12,1.44 -0.37,2.06 -0.25,0.62 -0.62,1.16 -1.11,1.61 -0.5,0.45 -1.12,0.8 -1.88,1.04 -0.76,0.24 -1.64,0.37 -2.66,0.37 h -2 v 5.24 H 14.01 V 0.83 Z m 0,7.58 c 0.99,0 1.71,-0.24 2.17,-0.71 C 21.8,7.22 22.03,6.57 22.03,5.75 22.03,5.37 21.97,5.03 21.86,4.72 21.74,4.41 21.57,4.14 21.34,3.92 21.11,3.7 20.81,3.53 20.45,3.41 20.09,3.29 19.67,3.23 19.18,3.23 h -2 v 5.19 h 1.99 z"
   id="path8"
   inkscape:connector-curvature="0"
   style="fill-opacity:1;fill:#e6e6e6" />
</g>
<g
   id="g12">
</g>
<g
   id="g14">
</g>
<g
   id="g16">
</g>
<g
   id="g18">
</g>
<g
   id="g20">
</g>
<g
   id="g22">
</g>
</svg>